<svg version="1.1" id="Layer_1" xmlns="http://www.w3.org/2000/svg" xmlns:xlink="http://www.w3.org/1999/xlink" x="0px" y="0px"
	 width="100%" viewBox="0 0 535 142" enable-background="new 0 0 535 142" xml:space="preserve">
<path fill="#FDFDFD" opacity="1.000000" stroke="none" 
	d="
M382.000000,143.000000 
	C254.666687,143.000000 127.833382,143.000000 1.000051,143.000000 
	C1.000034,95.666695 1.000034,48.333397 1.000017,1.000070 
	C179.333267,1.000047 357.666534,1.000047 535.999878,1.000023 
	C535.999878,48.333263 535.999878,95.666527 535.999939,142.999893 
	C484.833344,143.000000 433.666656,143.000000 382.000000,143.000000 
M335.836121,90.831680 
	C337.615265,91.197853 339.414612,91.487045 341.168823,91.948128 
	C343.846191,92.651871 344.378418,91.337479 344.711700,88.937637 
	C346.819946,87.280182 348.928192,85.622734 351.011261,84.906837 
	C351.055054,95.631683 351.098846,106.356522 351.063171,117.559250 
	C351.063171,117.559250 350.852783,117.995605 350.245850,118.098839 
	C350.299377,118.778526 350.352936,119.458206 350.611938,120.686958 
	C352.755524,124.096458 353.869904,122.346161 353.908478,119.761086 
	C354.005524,113.259918 357.637085,111.696732 363.463806,110.812073 
	C372.471191,109.444527 379.527649,104.622894 382.513397,95.387184 
	C383.370331,92.736481 383.839783,89.960533 384.491821,87.221428 
	C387.005859,86.670692 389.427765,86.140152 391.875732,86.595337 
	C391.878815,92.360085 391.794342,98.127159 391.947937,103.887894 
	C391.985352,105.291382 392.804657,106.674026 393.329926,108.813164 
	C393.812164,109.384590 394.280151,110.437332 394.778839,110.452072 
	C399.175995,110.582031 403.578644,110.527435 408.230164,110.527435 
	C408.230164,87.159256 408.239349,64.442764 408.178833,41.726467 
	C408.177277,41.141716 407.412598,40.558990 406.754791,39.243412 
	C406.085907,38.656715 405.435608,37.589005 404.745056,37.562286 
	C400.622101,37.402752 396.489838,37.483315 391.760345,37.483315 
	C391.760345,53.561329 391.760345,69.173187 391.013672,84.535683 
	C389.702728,84.280014 388.391815,84.024345 387.149017,83.028290 
	C385.797485,82.314575 384.445953,81.600861 382.988220,80.076881 
	C383.200470,74.367165 380.139893,70.128494 376.691833,66.062820 
	C371.278015,59.679237 363.555450,58.387402 355.908051,56.090321 
	C355.097046,55.556038 354.286011,55.021755 353.475006,54.487469 
	C353.285706,54.706306 353.096405,54.925140 352.907135,55.143974 
	C353.286804,55.771172 353.666473,56.398369 354.055298,57.785728 
	C354.398193,59.786095 354.741119,61.786457 355.136963,64.282028 
	C355.246399,64.614044 355.455170,64.862633 356.334625,65.099472 
	C356.559601,65.390587 356.784576,65.681702 356.973816,66.653976 
	C357.221802,68.265091 357.469818,69.876213 357.764679,71.791725 
	C359.134003,70.076080 359.927917,69.081360 361.329010,68.427910 
	C364.757385,70.333046 367.774475,72.558205 367.196381,76.962692 
	C366.440125,76.802750 365.683868,76.642799 364.585480,76.195045 
	C364.063812,76.344513 363.542175,76.493973 362.547058,76.842529 
	C362.376129,76.832855 362.205170,76.823181 361.879639,76.163651 
	C360.600800,75.017448 359.321960,73.871254 358.043121,72.725052 
	C357.735077,73.065414 357.427063,73.405769 357.119019,73.746132 
	C357.705719,74.417450 358.292419,75.088768 358.296021,76.110344 
	C355.871155,78.055344 353.446320,80.000343 350.997711,81.015160 
	C350.965790,70.020424 350.933899,59.025692 351.590149,48.006302 
	C352.208374,47.520592 352.826599,47.034882 353.444824,46.549164 
	C352.405121,46.009480 351.365387,45.469795 350.325684,44.930115 
	C350.202637,45.947201 350.079590,46.964291 349.741089,48.711979 
	C349.156952,51.453266 348.572815,54.194553 347.122650,56.986126 
	C329.601837,57.956985 322.781036,63.595448 317.533051,81.164040 
	C315.735901,82.083076 313.938782,83.002121 312.141632,83.921165 
	C313.551819,84.891716 314.962006,85.862274 317.134735,86.714752 
	C317.848969,88.001663 318.847412,89.209808 319.229523,90.588753 
	C321.158844,97.551384 324.889923,103.142242 331.165985,107.701469 
	C335.827026,109.068588 340.473389,110.488792 345.155243,111.780464 
	C347.504547,112.428619 348.610535,111.563499 347.975647,108.343750 
	C347.981079,107.886467 347.986511,107.429192 347.983948,106.723785 
	C347.983948,106.723785 347.817474,106.261986 347.316071,105.567451 
	C346.734100,103.032394 346.079590,101.292892 342.666809,100.718781 
	C338.596222,100.034012 335.422180,97.103226 334.944092,91.652992 
	C334.960266,91.393578 334.976410,91.134171 335.836121,90.831680 
M244.006912,97.076630 
	C244.006912,97.076630 244.142960,97.039124 244.158722,96.090858 
	C244.158722,87.822372 244.158722,79.553886 244.158722,70.861542 
	C249.843338,70.861542 255.245316,70.861542 261.461975,70.861542 
	C260.932709,67.254288 260.479034,64.162361 259.906708,60.208878 
	C256.147247,59.806171 252.372025,58.975811 248.632446,59.113491 
	C244.355621,59.270943 242.547577,58.080605 242.906784,53.543583 
	C243.143051,50.559624 242.442215,47.501472 242.115311,43.984779 
	C236.960205,45.690884 231.906784,46.273903 228.467972,48.939713 
	C226.620132,50.372150 227.544220,55.380337 227.179611,59.169113 
	C222.705887,59.169113 218.448090,59.169113 213.939560,59.169113 
	C213.939560,61.229755 213.913376,62.870827 213.944290,64.510826 
	C214.050812,70.161446 214.932098,71.017555 220.600800,71.028076 
	C222.848801,71.032249 225.096802,71.028763 227.654343,71.028763 
	C227.654343,78.865021 227.640991,85.990463 227.658737,93.115829 
	C227.671875,98.395203 228.772110,103.283531 233.133469,107.717308 
	C241.866821,113.255394 251.338486,110.768318 261.590271,110.685455 
	C260.968506,107.137634 260.445099,104.151062 259.562256,100.409843 
	C258.180237,99.985260 256.824829,99.377205 255.410950,99.172234 
	C251.879288,98.660271 248.321106,98.331337 244.727417,97.425179 
	C244.468384,97.265907 244.209335,97.106636 244.006912,97.076630 
M42.951702,107.072304 
	C42.951702,107.072304 42.846214,107.106392 42.815735,107.830284 
	C52.909245,114.432846 67.524048,113.711884 76.687920,106.159340 
	C83.717888,100.365486 87.076523,89.301369 84.052307,81.001404 
	C85.156883,73.802765 76.294914,60.388695 65.378777,58.054619 
	C55.339916,55.908119 45.971085,56.841644 37.645161,63.382675 
	C35.331043,58.470932 31.423899,57.623745 22.065317,59.663399 
	C22.065317,80.960823 22.037807,102.268921 22.140377,123.576401 
	C22.145950,124.734390 23.239027,125.887161 23.860758,127.943657 
	C28.667547,128.492844 33.474335,129.042023 38.910789,129.663162 
	C38.910789,120.483063 38.910789,112.532875 39.447659,104.938881 
	C39.945007,105.317711 40.442360,105.696548 41.188858,106.699265 
	C41.779133,106.860466 42.369408,107.021675 42.951702,107.072304 
M436.404602,39.382919 
	C435.649414,38.727894 434.915375,37.536926 434.135529,37.506111 
	C429.579742,37.326099 425.013184,37.417843 419.294434,37.417843 
	C420.039551,41.695152 420.684143,45.395546 421.514038,50.018742 
	C426.880463,50.481514 432.246857,50.944290 438.624542,51.494274 
	C437.930328,46.982460 437.392456,43.486794 436.404602,39.382919 
M422.172729,108.812683 
	C422.807953,109.405647 423.425385,110.488297 424.081299,110.512138 
	C428.342102,110.666977 432.611298,110.591591 437.165710,110.591591 
	C437.165710,94.470291 437.184082,78.896957 437.109314,63.324078 
	C437.105713,62.574478 436.281067,61.828819 435.595306,60.294842 
	C430.788879,59.697239 425.982483,59.099636 420.801727,58.455494 
	C420.801727,74.986061 420.783234,90.360878 420.856323,105.735260 
	C420.859985,106.503990 421.657745,107.268951 422.172729,108.812683 
M205.197159,60.065342 
	C196.155869,55.825825 188.116272,57.670029 180.890625,64.239120 
	C178.687851,58.557949 174.593048,57.421444 165.064377,59.698738 
	C165.064377,74.643501 165.028275,89.588524 165.134171,104.532532 
	C165.142471,105.704262 166.141144,106.868965 166.753769,108.757355 
	C167.342728,109.373978 167.912994,110.502594 168.523666,110.524895 
	C172.785431,110.680580 177.055557,110.607216 181.868454,110.607216 
	C181.868454,102.703751 181.657028,95.419617 181.919189,88.152573 
	C182.290695,77.854210 187.445724,72.776024 197.779556,72.171875 
	C200.833069,71.993355 203.905853,72.144363 207.054581,72.144363 
	C207.054581,69.678619 207.291489,67.648170 206.982300,65.704605 
	C206.718033,64.043488 205.827103,62.482071 205.197159,60.065342 
M311.673737,60.318508 
	C310.595642,59.879787 309.534821,59.121136 308.436218,59.061668 
	C304.987976,58.875027 301.525513,58.951576 298.045013,58.162003 
	C298.938232,51.384007 300.745361,49.549274 307.290619,49.046070 
	C309.409027,48.883213 311.613983,49.317169 313.652008,48.881802 
	C314.552032,48.689533 315.134644,47.011295 315.979736,45.166546 
	C315.464783,42.064728 317.434082,37.497734 312.037079,37.097198 
	C307.082245,36.729473 302.045258,36.687382 297.100342,37.128250 
	C286.718109,38.053890 282.225769,43.060516 281.643097,53.630840 
	C281.553162,55.262436 281.443695,56.892952 281.306274,59.123840 
	C277.079956,59.123840 273.050537,59.123840 268.199188,59.123840 
	C268.989075,63.197182 268.544861,67.815178 270.562775,69.521576 
	C272.955353,71.544815 277.468750,71.060089 281.563812,71.746216 
	C281.563812,82.088493 281.505127,92.692703 281.626923,103.294838 
	C281.645264,104.889687 282.507050,106.474846 283.029663,108.870140 
	C283.489563,109.431496 283.936127,110.467033 284.411438,110.480392 
	C288.847198,110.605026 293.287903,110.554214 298.206055,110.554214 
	C298.206055,97.051437 298.206055,84.026299 298.206055,70.669579 
	C303.426453,70.669579 308.160156,70.669579 313.771179,70.669579 
	C313.103668,67.165764 312.526550,64.136307 311.673737,60.318508 
M104.191513,107.720245 
	C115.260445,113.166992 126.861649,113.342896 138.599838,110.839714 
	C152.741135,107.824081 161.577530,91.879105 156.030685,79.009521 
	C155.333176,70.658119 150.658737,64.713661 143.573120,61.202652 
	C131.830719,55.384151 119.495918,55.577785 107.244057,59.827324 
	C97.703117,63.136581 92.846428,70.361443 92.125710,80.107239 
	C91.316093,91.055069 94.311188,100.633842 104.191513,107.720245 
M461.069824,108.696007 
	C472.402374,113.422348 484.039795,113.515106 495.597687,110.125778 
	C508.039734,106.477180 515.333740,92.653618 511.015686,81.162880 
	C511.779266,74.062782 506.040070,64.570335 498.199982,61.079323 
	C485.086426,55.240131 471.817596,55.368382 458.698273,61.260738 
	C457.071747,61.991253 455.559418,63.148331 454.245941,64.376907 
	C441.487518,76.310791 444.951477,98.441223 461.069824,108.696007 
M352.349609,51.201031 
	C352.726715,51.250862 353.103851,51.300694 353.480957,51.350525 
	C353.483337,51.081024 353.485687,50.811527 353.488068,50.542034 
	C353.108551,50.584362 352.729034,50.626690 352.349609,51.201031 
M344.608765,96.474487 
	C344.832123,96.531166 345.055450,96.587845 345.278809,96.644516 
	C345.135010,96.503960 344.991180,96.363403 344.608765,96.474487 
z"/>
<path fill="#2A498E" opacity="1.000000" stroke="none" 
	d="
M40.939713,106.075378 
	C40.442360,105.696548 39.945007,105.317711 38.966179,104.507431 
	C38.231987,103.514412 37.979279,102.952858 37.726574,102.391296 
	C37.434940,102.420181 37.143303,102.449066 36.851669,102.477951 
	C36.851669,110.496902 36.851669,118.515854 36.851669,127.042358 
	C32.085190,127.042358 27.955536,127.042358 23.825882,127.042358 
	C23.239027,125.887161 22.145950,124.734390 22.140377,123.576401 
	C22.037807,102.268921 22.065317,80.960823 22.065317,59.663399 
	C31.423899,57.623745 35.331043,58.470932 37.645161,63.382675 
	C45.971085,56.841644 55.339916,55.908119 65.378777,58.054619 
	C76.294914,60.388695 85.156883,73.802765 83.806770,81.738846 
	C83.434486,83.287415 83.182106,84.101295 83.199760,84.909264 
	C83.480522,97.755623 74.549438,108.131958 61.218006,109.026833 
	C55.164326,109.433182 48.974358,107.809311 42.846214,107.106392 
	C42.846214,107.106392 42.951702,107.072304 42.844086,106.825272 
	C42.137550,106.410629 41.538631,106.243004 40.939713,106.075378 
M60.983685,70.020058 
	C60.983685,70.020058 60.969429,70.095047 60.905064,69.355354 
	C55.673897,65.308380 49.444382,65.209358 43.905037,69.085121 
	C38.355797,72.967812 35.894058,79.822632 37.995804,86.706070 
	C39.954498,90.394882 41.140507,94.922188 44.037991,97.592255 
	C49.519283,102.643318 59.152241,101.007050 64.119705,95.153793 
	C69.915359,88.324677 69.381874,77.880959 62.877922,71.227348 
	C62.222824,70.834213 61.567726,70.441078 60.983685,70.020058 
z"/>
<path fill="#2A498F" opacity="1.000000" stroke="none" 
	d="
M461.021332,107.946648 
	C444.951477,98.441223 441.487518,76.310791 454.245941,64.376907 
	C455.559418,63.148331 457.071747,61.991253 458.698273,61.260738 
	C471.817596,55.368382 485.086426,55.240131 498.199982,61.079323 
	C506.040070,64.570335 511.779266,74.062782 510.691467,81.750641 
	C510.229187,83.641869 509.969910,84.945549 509.972351,86.248734 
	C509.990997,96.197464 505.125183,103.589592 496.111176,106.488152 
	C488.776093,108.846825 480.610718,108.868233 472.778351,109.331551 
	C468.900238,109.560959 464.942841,108.450760 461.021332,107.946648 
M488.935547,70.076210 
	C488.935547,70.076210 488.916107,70.199158 488.792053,69.468712 
	C482.316772,64.983917 475.596344,65.460297 469.068878,69.025826 
	C463.883728,71.858131 461.123474,79.504578 463.006317,84.946030 
	C463.378113,86.510712 463.679932,88.095993 464.133453,89.636612 
	C466.468750,97.569267 470.198853,100.350990 478.489136,100.409172 
	C486.764954,100.467247 492.230896,96.846077 494.274261,89.475731 
	C496.148438,82.715675 495.543610,76.354881 489.786865,70.688263 
	C489.461761,70.487854 489.136658,70.287445 488.935547,70.076210 
z"/>
<path fill="#2A498F" opacity="1.000000" stroke="none" 
	d="
M104.133156,106.994370 
	C94.311188,100.633842 91.316093,91.055069 92.125710,80.107239 
	C92.846428,70.361443 97.703117,63.136581 107.244057,59.827324 
	C119.495918,55.577785 131.830719,55.384151 143.573120,61.202652 
	C150.658737,64.713661 155.333176,70.658119 155.952423,79.860138 
	C155.926254,94.713898 151.351089,103.573303 140.361908,106.946503 
	C133.554016,109.036224 126.021660,109.240822 118.800865,109.344810 
	C113.923927,109.415047 109.023224,107.835793 104.133156,106.994370 
M135.039597,70.989487 
	C135.039597,70.989487 135.003723,71.090553 134.817657,70.393867 
	C131.579590,69.034233 128.414749,66.787033 125.087151,66.512482 
	C119.373581,66.041069 113.753586,67.310707 110.429115,72.913101 
	C107.375877,78.058418 105.426819,83.355316 109.373375,89.723854 
	C112.009201,98.327599 116.858589,101.248009 126.803635,100.220734 
	C134.197525,99.456978 139.309021,94.174538 140.165070,86.509277 
	C140.777863,81.022270 139.983841,75.968468 135.560211,71.624191 
	C135.231186,71.508530 135.025558,71.281181 135.039597,70.989487 
z"/>
<path fill="#29488E" opacity="1.000000" stroke="none" 
	d="
M298.068542,58.926189 
	C301.525513,58.951576 304.987976,58.875027 308.436218,59.061668 
	C309.534821,59.121136 310.595642,59.879787 311.678223,61.081081 
	C311.343658,63.752968 311.004608,65.662277 310.549255,68.226364 
	C305.768799,68.226364 301.071289,68.226364 295.859314,68.226364 
	C295.859314,81.772537 295.859314,94.633308 295.859314,108.064491 
	C291.209717,108.064491 287.094208,108.064491 282.978668,108.064491 
	C282.507050,106.474846 281.645264,104.889687 281.626923,103.294838 
	C281.505127,92.692703 281.563812,82.088493 281.563812,71.746216 
	C277.468750,71.060089 272.955353,71.544815 270.562775,69.521576 
	C268.544861,67.815178 268.989075,63.197182 268.199188,59.123840 
	C273.050537,59.123840 277.079956,59.123840 281.306274,59.123840 
	C281.443695,56.892952 281.553162,55.262436 281.643097,53.630840 
	C282.225769,43.060516 286.718109,38.053890 297.100342,37.128250 
	C302.045258,36.687382 307.082245,36.729473 312.037079,37.097198 
	C317.434082,37.497734 315.464783,42.064728 315.469727,45.621155 
	C310.367004,46.503616 305.611145,46.328667 301.224121,47.516315 
	C296.077240,48.909668 294.477112,55.885727 298.068542,58.926189 
z"/>
<path fill="#2A498D" opacity="1.000000" stroke="none" 
	d="
M232.858780,107.049713 
	C228.772110,103.283531 227.671875,98.395203 227.658737,93.115829 
	C227.640991,85.990463 227.654343,78.865021 227.654343,71.028763 
	C225.096802,71.028763 222.848801,71.032249 220.600800,71.028076 
	C214.932098,71.017555 214.050812,70.161446 213.944290,64.510826 
	C213.913376,62.870827 213.939560,61.229755 213.939560,59.169113 
	C218.448090,59.169113 222.705887,59.169113 227.179611,59.169113 
	C227.544220,55.380337 226.620132,50.372150 228.467972,48.939713 
	C231.906784,46.273903 236.960205,45.690884 242.115311,43.984779 
	C242.442215,47.501472 243.143051,50.559624 242.906784,53.543583 
	C242.547577,58.080605 244.355621,59.270943 248.632446,59.113491 
	C252.372025,58.975811 256.147247,59.806171 259.946106,61.079224 
	C259.832672,63.863720 259.679840,65.777870 259.482452,68.249550 
	C253.550140,68.249550 248.012222,68.249550 242.117920,68.249550 
	C242.117920,76.603828 242.002945,84.368073 242.209869,92.123726 
	C242.254013,93.778206 243.467957,95.401474 244.142960,97.039124 
	C244.142960,97.039124 244.006912,97.076630 244.177155,97.114975 
	C244.540390,97.383896 244.682449,97.642448 244.773560,97.928955 
	C248.321106,98.331337 251.879288,98.660271 255.410950,99.172234 
	C256.824829,99.377205 258.180237,99.985260 259.627258,101.155945 
	C259.341797,103.803520 258.991333,105.704987 258.399200,108.917564 
	C249.828537,108.290764 241.343658,107.670235 232.858780,107.049713 
z"/>
<path fill="#29488D" opacity="1.000000" stroke="none" 
	d="
M393.264496,108.066254 
	C392.804657,106.674026 391.985352,105.291382 391.947937,103.887894 
	C391.794342,98.127159 391.878815,92.360085 391.695587,85.995087 
	C391.515442,85.394829 391.448730,85.012878 391.448730,85.012878 
	C391.448730,85.012878 391.760345,84.785042 391.760345,84.785042 
	C391.760345,69.173187 391.760345,53.561329 391.760345,37.483315 
	C396.489838,37.483315 400.622101,37.402752 404.745056,37.562286 
	C405.435608,37.589005 406.085907,38.656715 406.800842,40.074406 
	C406.846863,63.105003 406.846863,85.304604 406.846863,108.066254 
	C401.836639,108.066254 397.550568,108.066254 393.264496,108.066254 
z"/>
<path fill="#2A498F" opacity="1.000000" stroke="none" 
	d="
M166.679535,108.036934 
	C166.141144,106.868965 165.142471,105.704262 165.134171,104.532532 
	C165.028275,89.588524 165.064377,74.643501 165.057434,59.698723 
	C174.593048,57.421444 178.687851,58.557949 180.890625,64.239120 
	C188.116272,57.670029 196.155869,55.825825 205.150101,60.924103 
	C205.103043,64.382889 205.103043,66.982910 205.103043,69.526016 
	C203.847992,69.685516 203.346298,69.857262 202.876633,69.793411 
	C184.010986,67.228813 178.874969,77.395386 179.838348,90.415382 
	C180.261017,96.127953 179.909470,101.897812 179.909470,108.036934 
	C174.963623,108.036934 170.821579,108.036934 166.679535,108.036934 
z"/>
<path fill="#28488F" opacity="1.000000" stroke="none" 
	d="
M422.085754,108.035660 
	C421.657745,107.268951 420.859985,106.503990 420.856323,105.735260 
	C420.783234,90.360878 420.801727,74.986061 420.801727,58.455494 
	C425.982483,59.099636 430.788879,59.697239 435.504517,61.031868 
	C435.413727,76.977951 435.413727,92.187012 435.413727,108.035660 
	C430.317383,108.035660 426.201569,108.035660 422.085754,108.035660 
z"/>
<path fill="#2A498E" opacity="1.000000" stroke="none" 
	d="
M331.106476,106.964104 
	C324.889923,103.142242 321.158844,97.551384 319.229523,90.588753 
	C318.847412,89.209808 317.848969,88.001663 316.586456,86.483902 
	C316.273224,85.751190 316.508240,85.249336 317.120972,84.762070 
	C318.001221,84.803429 318.503845,84.830193 319.352722,84.887817 
	C320.159882,84.875633 320.620758,84.832596 321.354553,84.958794 
	C322.417908,85.375259 323.208313,85.622498 324.335419,85.787506 
	C326.779602,86.138817 328.887024,86.572372 331.119263,87.318130 
	C332.174072,89.107613 333.104065,90.584900 334.230194,92.159439 
	C334.426361,92.256683 334.830383,92.425705 334.830383,92.425705 
	C335.422180,97.103226 338.596222,100.034012 342.666809,100.718781 
	C346.079590,101.292892 346.734100,103.032394 347.492249,106.040726 
	C347.674774,106.738152 347.782623,106.890793 347.991943,106.971909 
	C347.986511,107.429192 347.981079,107.886467 347.485535,108.693375 
	C341.699127,108.350044 336.402802,107.657074 331.106476,106.964104 
z"/>
<path fill="#2B4A8E" opacity="1.000000" stroke="none" 
	d="
M356.018707,56.684883 
	C363.555450,58.387402 371.278015,59.679237 376.691833,66.062820 
	C380.139893,70.128494 383.200470,74.367165 382.824463,80.748634 
	C377.766479,79.937813 372.872284,78.455246 367.978088,76.972672 
	C367.774475,72.558205 364.757385,70.333046 360.803833,68.035355 
	C359.188965,67.086136 358.099274,66.529480 357.009552,65.972824 
	C356.784576,65.681702 356.559601,65.390587 355.991821,64.828537 
	C355.551910,64.233818 355.363586,63.976891 355.084045,63.786819 
	C354.741119,61.786457 354.398193,59.786095 354.379089,57.339668 
	C355.141479,56.824036 355.580109,56.754459 356.018707,56.684883 
z"/>
<path fill="#2D4B8F" opacity="1.000000" stroke="none" 
	d="
M318.190948,80.902740 
	C322.781036,63.595448 329.601837,57.956985 347.542358,57.291527 
	C347.290802,59.750340 346.619537,61.903755 345.592224,64.104607 
	C337.978851,66.015717 333.776886,70.797325 331.730164,78.165665 
	C327.595398,79.304993 323.788605,80.229187 319.684631,81.099312 
	C318.988586,80.997734 318.589783,80.950233 318.190948,80.902740 
z"/>
<path fill="#6D78AE" opacity="1.000000" stroke="none" 
	d="
M345.948273,64.057167 
	C346.619537,61.903755 347.290802,59.750340 347.975372,57.266380 
	C348.572815,54.194553 349.156952,51.453266 350.085083,48.361908 
	C350.429077,48.011837 350.901978,48.030960 350.901978,48.030960 
	C350.933899,59.025692 350.965790,70.020424 351.002380,81.753746 
	C351.010223,82.674675 351.013458,82.857018 350.999634,83.286652 
	C350.982635,83.533951 350.965668,84.029465 350.984741,84.014954 
	C351.003815,84.000435 351.036438,83.965271 351.036438,83.965271 
	C348.928192,85.622734 346.819946,87.280182 343.965149,89.018463 
	C339.143890,88.401512 335.069183,87.703720 330.994476,87.005928 
	C328.887024,86.572372 326.779602,86.138817 324.286682,85.485260 
	C322.961334,85.106697 322.021454,84.948135 321.081604,84.789566 
	C320.620758,84.832596 320.159882,84.875633 319.350891,84.591553 
	C319.001495,83.866920 319.000214,83.469398 319.246094,82.991936 
	C319.656799,82.854866 319.820312,82.797737 320.447205,82.823715 
	C330.292572,82.852196 339.674500,82.797585 349.260376,82.755936 
	C349.773438,82.612595 349.846710,82.381485 349.645691,81.747940 
	C345.198242,77.923378 342.426788,73.861374 345.092651,67.637253 
	C345.462860,66.223930 345.705566,65.140549 345.948273,64.057167 
z"/>
<path fill="#1B1C1F" opacity="1.000000" stroke="none" 
	d="
M166.716644,108.397141 
	C170.821579,108.036934 174.963623,108.036934 179.909470,108.036934 
	C179.909470,101.897812 180.261017,96.127953 179.838348,90.415382 
	C178.874969,77.395386 184.010986,67.228813 202.876633,69.793411 
	C203.346298,69.857262 203.847992,69.685516 205.103043,69.526016 
	C205.103043,66.982910 205.103043,64.382889 205.158203,61.329712 
	C205.827103,62.482071 206.718033,64.043488 206.982300,65.704605 
	C207.291489,67.648170 207.054581,69.678619 207.054581,72.144363 
	C203.905853,72.144363 200.833069,71.993355 197.779556,72.171875 
	C187.445724,72.776024 182.290695,77.854210 181.919189,88.152573 
	C181.657028,95.419617 181.868454,102.703751 181.868454,110.607216 
	C177.055557,110.607216 172.785431,110.680580 168.523666,110.524895 
	C167.912994,110.502594 167.342728,109.373978 166.716644,108.397141 
z"/>
<path fill="#0C0E11" opacity="1.000000" stroke="none" 
	d="
M104.162338,107.357307 
	C109.023224,107.835793 113.923927,109.415047 118.800865,109.344810 
	C126.021660,109.240822 133.554016,109.036224 140.361908,106.946503 
	C151.351089,103.573303 155.926254,94.713898 155.947449,80.264450 
	C161.577530,91.879105 152.741135,107.824081 138.599838,110.839714 
	C126.861649,113.342896 115.260445,113.166992 104.162338,107.357307 
z"/>
<path fill="#131417" opacity="1.000000" stroke="none" 
	d="
M391.387024,84.660362 
	C391.760345,84.785042 391.448730,85.012878 391.448730,85.012878 
	C391.448730,85.012878 391.515442,85.394829 391.682556,85.502220 
	C389.427765,86.140152 387.005859,86.670692 384.491821,87.221428 
	C383.839783,89.960533 383.370331,92.736481 382.513397,95.387184 
	C379.527649,104.622894 372.471191,109.444527 363.463806,110.812073 
	C357.637085,111.696732 354.005524,113.259918 353.908478,119.761086 
	C353.869904,122.346161 352.755524,124.096458 350.699219,120.194260 
	C350.808594,119.132904 350.830688,118.564255 350.852783,117.995605 
	C350.852783,117.995605 351.063171,117.559250 351.329163,117.029915 
	C352.367462,113.949539 353.139771,111.398506 354.353760,108.892395 
	C370.808594,109.137756 381.487061,99.752823 382.313110,84.863541 
	C383.720612,84.416313 384.823883,84.125931 386.218140,83.863182 
	C386.699738,83.850105 386.890289,83.809395 387.080872,83.768677 
	C388.391815,84.024345 389.702728,84.280014 391.387024,84.660362 
z"/>
<path fill="#325093" opacity="1.000000" stroke="none" 
	d="
M421.328766,49.095940 
	C420.684143,45.395546 420.039551,41.695152 419.294434,37.417843 
	C425.013184,37.417843 429.579742,37.326099 434.135529,37.506111 
	C434.915375,37.536926 435.649414,38.727894 436.354187,39.983257 
	C436.076782,43.294518 435.849792,46.005436 435.591003,49.095940 
	C430.535492,49.095940 425.932129,49.095940 421.328766,49.095940 
z"/>
<path fill="#14171F" opacity="1.000000" stroke="none" 
	d="
M283.004150,108.467316 
	C287.094208,108.064491 291.209717,108.064491 295.859314,108.064491 
	C295.859314,94.633308 295.859314,81.772537 295.859314,68.226364 
	C301.071289,68.226364 305.768799,68.226364 310.549255,68.226364 
	C311.004608,65.662277 311.343658,63.752968 311.816101,61.475250 
	C312.526550,64.136307 313.103668,67.165764 313.771179,70.669579 
	C308.160156,70.669579 303.426453,70.669579 298.206055,70.669579 
	C298.206055,84.026299 298.206055,97.051437 298.206055,110.554214 
	C293.287903,110.554214 288.847198,110.605026 284.411438,110.480392 
	C283.936127,110.467033 283.489563,109.431496 283.004150,108.467316 
z"/>
<path fill="#0C0D0F" opacity="1.000000" stroke="none" 
	d="
M461.045593,108.321327 
	C464.942841,108.450760 468.900238,109.560959 472.778351,109.331551 
	C480.610718,108.868233 488.776093,108.846825 496.111176,106.488152 
	C505.125183,103.589592 509.990997,96.197464 509.972351,86.248734 
	C509.969910,84.945549 510.229187,83.641869 510.717590,82.094864 
	C515.333740,92.653618 508.039734,106.477180 495.597687,110.125778 
	C484.039795,113.515106 472.402374,113.422348 461.045593,108.321327 
z"/>
<path fill="#101010" opacity="1.000000" stroke="none" 
	d="
M393.297211,108.439713 
	C397.550568,108.066254 401.836639,108.066254 406.846863,108.066254 
	C406.846863,85.304604 406.846863,63.105003 406.925354,40.440361 
	C407.412598,40.558990 408.177277,41.141716 408.178833,41.726467 
	C408.239349,64.442764 408.230164,87.159256 408.230164,110.527435 
	C403.578644,110.527435 399.175995,110.582031 394.778839,110.452072 
	C394.280151,110.437332 393.812164,109.384590 393.297211,108.439713 
z"/>
<path fill="#0D0F13" opacity="1.000000" stroke="none" 
	d="
M42.830975,107.468338 
	C48.974358,107.809311 55.164326,109.433182 61.218006,109.026833 
	C74.549438,108.131958 83.480522,97.755623 83.199760,84.909264 
	C83.182106,84.101295 83.434486,83.287415 83.816086,82.157150 
	C87.076523,89.301369 83.717888,100.365486 76.687920,106.159340 
	C67.524048,113.711884 52.909245,114.432846 42.830975,107.468338 
z"/>
<path fill="#7781B1" opacity="1.000000" stroke="none" 
	d="
M387.114929,83.398483 
	C386.890289,83.809395 386.699738,83.850105 385.965515,83.526085 
	C373.953461,83.120682 362.485077,83.080017 351.016663,83.039352 
	C351.013458,82.857018 351.010223,82.674675 351.014252,82.218842 
	C353.446320,80.000343 355.871155,78.055344 358.928101,76.008377 
	C360.384888,76.208771 361.209564,76.511139 362.034241,76.813507 
	C362.205170,76.823181 362.376129,76.832855 363.105438,76.765640 
	C364.085083,76.620125 364.506348,76.551491 364.927612,76.482857 
	C365.683868,76.642799 366.440125,76.802750 367.587219,76.967682 
	C372.872284,78.455246 377.766479,79.937813 382.877563,81.153763 
	C384.445953,81.600861 385.797485,82.314575 387.114929,83.398483 
z"/>
<path fill="#151B28" opacity="1.000000" stroke="none" 
	d="
M422.129242,108.424171 
	C426.201569,108.035660 430.317383,108.035660 435.413727,108.035660 
	C435.413727,92.187012 435.413727,76.977951 435.626221,61.425110 
	C436.281067,61.828819 437.105713,62.574478 437.109314,63.324078 
	C437.184082,78.896957 437.165710,94.470291 437.165710,110.591591 
	C432.611298,110.591591 428.342102,110.666977 424.081299,110.512138 
	C423.425385,110.488297 422.807953,109.405647 422.129242,108.424171 
z"/>
<path fill="#6E79AE" opacity="1.000000" stroke="none" 
	d="
M353.912048,108.847473 
	C353.139771,111.398506 352.367462,113.949539 351.368896,116.790970 
	C351.098846,106.356522 351.055054,95.631683 351.023865,84.436050 
	C351.036438,83.965271 351.003815,84.000435 351.324249,84.046066 
	C353.469452,85.997803 355.294220,87.903908 357.148132,90.234276 
	C356.447845,94.461342 355.718353,98.264145 354.827026,102.355347 
	C354.414093,104.711647 354.163086,106.779556 353.912048,108.847473 
z"/>
<path fill="#10141E" opacity="1.000000" stroke="none" 
	d="
M244.150848,96.564987 
	C243.467957,95.401474 242.254013,93.778206 242.209869,92.123726 
	C242.002945,84.368073 242.117920,76.603828 242.117920,68.249550 
	C248.012222,68.249550 253.550140,68.249550 259.482452,68.249550 
	C259.679840,65.777870 259.832672,63.863720 260.005432,61.510002 
	C260.479034,64.162361 260.932709,67.254288 261.461975,70.861542 
	C255.245316,70.861542 249.843338,70.861542 244.158722,70.861542 
	C244.158722,79.553886 244.158722,87.822372 244.150848,96.564987 
z"/>
<path fill="#0E1116" opacity="1.000000" stroke="none" 
	d="
M232.996124,107.383514 
	C241.343658,107.670235 249.828537,108.290764 258.399200,108.917564 
	C258.991333,105.704987 259.341797,103.803520 259.806976,101.533264 
	C260.445099,104.151062 260.968506,107.137634 261.590271,110.685455 
	C251.338486,110.768318 241.866821,113.255394 232.996124,107.383514 
z"/>
<path fill="#000001" opacity="1.000000" stroke="none" 
	d="
M23.843319,127.493011 
	C27.955536,127.042358 32.085190,127.042358 36.851669,127.042358 
	C36.851669,118.515854 36.851669,110.496902 36.851669,102.477951 
	C37.143303,102.449066 37.434940,102.420181 37.726574,102.391296 
	C37.979279,102.952858 38.231987,103.514412 38.697742,104.329330 
	C38.910789,112.532875 38.910789,120.483063 38.910789,129.663162 
	C33.474335,129.042023 28.667547,128.492844 23.843319,127.493011 
z"/>
<path fill="#0E1116" opacity="1.000000" stroke="none" 
	d="
M298.056763,58.544098 
	C294.477112,55.885727 296.077240,48.909668 301.224121,47.516315 
	C305.611145,46.328667 310.367004,46.503616 315.410522,46.041714 
	C315.134644,47.011295 314.552032,48.689533 313.652008,48.881802 
	C311.613983,49.317169 309.409027,48.883213 307.290619,49.046070 
	C300.745361,49.549274 298.938232,51.384007 298.056763,58.544098 
z"/>
<path fill="#0B1220" opacity="1.000000" stroke="none" 
	d="
M421.421387,49.557343 
	C425.932129,49.095940 430.535492,49.095940 435.591003,49.095940 
	C435.849792,46.005436 436.076782,43.294518 436.579163,40.287361 
	C437.392456,43.486794 437.930328,46.982460 438.624542,51.494274 
	C432.246857,50.944290 426.880463,50.481514 421.421387,49.557343 
z"/>
<path fill="#14161C" opacity="1.000000" stroke="none" 
	d="
M331.119263,87.318130 
	C335.069183,87.703720 339.143890,88.401512 343.633148,89.093117 
	C344.378418,91.337479 343.846191,92.651871 341.168823,91.948128 
	C339.414612,91.487045 337.615265,91.197853 335.086914,90.810120 
	C334.236481,91.213104 334.135254,91.637642 334.034027,92.062187 
	C333.104065,90.584900 332.174072,89.107613 331.119263,87.318130 
z"/>
<path fill="#171A21" opacity="1.000000" stroke="none" 
	d="
M331.136230,107.332787 
	C336.402802,107.657074 341.699127,108.350044 347.431335,109.033455 
	C348.610535,111.563499 347.504547,112.428619 345.155243,111.780464 
	C340.473389,110.488792 335.827026,109.068588 331.136230,107.332787 
z"/>
<path fill="#EFF0F5" opacity="1.000000" stroke="none" 
	d="
M319.983795,82.740616 
	C319.820312,82.797737 319.656799,82.854866 318.910095,82.931931 
	C317.799042,83.550400 317.271179,84.148941 316.743286,84.747482 
	C316.508240,85.249336 316.273224,85.751190 316.205200,86.542938 
	C314.962006,85.862274 313.551819,84.891716 312.141632,83.921165 
	C313.938782,83.002121 315.735901,82.083076 317.862000,81.033386 
	C318.589783,80.950233 318.988586,80.997734 319.691650,81.363937 
	C319.991821,82.035301 319.987793,82.387962 319.983795,82.740616 
z"/>
<path fill="#F5F5F5" opacity="1.000000" stroke="none" 
	d="
M351.246063,48.018631 
	C350.901978,48.030960 350.429077,48.011837 350.192810,47.996609 
	C350.079590,46.964291 350.202637,45.947201 350.325684,44.930111 
	C351.365387,45.469795 352.405121,46.009480 353.444824,46.549171 
	C352.826599,47.034882 352.208374,47.520592 351.246063,48.018631 
z"/>
<path fill="#E9EAEA" opacity="1.000000" stroke="none" 
	d="
M356.991699,66.313400 
	C358.099274,66.529480 359.188965,67.086136 360.500275,67.864716 
	C359.927917,69.081360 359.134003,70.076080 357.764679,71.791725 
	C357.469818,69.876213 357.221802,68.265091 356.991699,66.313400 
z"/>
<path fill="#E9EAEA" opacity="1.000000" stroke="none" 
	d="
M361.956940,76.488579 
	C361.209564,76.511139 360.384888,76.208771 359.219666,75.833252 
	C358.292419,75.088768 357.705719,74.417450 357.119019,73.746132 
	C357.427063,73.405769 357.735077,73.065414 358.043121,72.725052 
	C359.321960,73.871254 360.600800,75.017448 361.956940,76.488579 
z"/>
<path fill="#F5F5F5" opacity="1.000000" stroke="none" 
	d="
M355.963379,56.387604 
	C355.580109,56.754459 355.141479,56.824036 354.374512,56.959587 
	C353.666473,56.398369 353.286804,55.771172 352.907135,55.143974 
	C353.096405,54.925140 353.285706,54.706306 353.475006,54.487469 
	C354.286011,55.021755 355.097046,55.556038 355.963379,56.387604 
z"/>
<path fill="#F5F5F5" opacity="1.000000" stroke="none" 
	d="
M352.349548,50.935028 
	C352.729034,50.626690 353.108551,50.584362 353.488068,50.542030 
	C353.485687,50.811527 353.483337,51.081024 353.480957,51.350525 
	C353.103851,51.300694 352.726715,51.250862 352.349548,50.935028 
z"/>
<path fill="#F8F8F9" opacity="1.000000" stroke="none" 
	d="
M350.549316,118.047226 
	C350.830688,118.564255 350.808594,119.132904 350.596497,119.919724 
	C350.352936,119.458206 350.299377,118.778526 350.549316,118.047226 
z"/>
<path fill="#E9EAEA" opacity="1.000000" stroke="none" 
	d="
M364.756531,76.338951 
	C364.506348,76.551491 364.085083,76.620125 363.342163,76.666100 
	C363.542175,76.493973 364.063812,76.344513 364.756531,76.338951 
z"/>
<path fill="#F5F5F5" opacity="1.000000" stroke="none" 
	d="
M344.728088,96.348663 
	C344.991180,96.363403 345.135010,96.503960 345.278809,96.644516 
	C345.055450,96.587845 344.832123,96.531166 344.728088,96.348663 
z"/>
<path fill="#0D0F13" opacity="1.000000" stroke="none" 
	d="
M41.064285,106.387321 
	C41.538631,106.243004 42.137550,106.410629 42.848076,106.880562 
	C42.369408,107.021675 41.779133,106.860466 41.064285,106.387321 
z"/>
<path fill="#F5F5F5" opacity="1.000000" stroke="none" 
	d="
M334.230194,92.159439 
	C334.135254,91.637642 334.236481,91.213104 334.665131,90.831665 
	C334.976410,91.134171 334.960266,91.393578 334.887238,92.039352 
	C334.830383,92.425705 334.426361,92.256683 334.230194,92.159439 
z"/>
<path fill="#10141E" opacity="1.000000" stroke="none" 
	d="
M244.750488,97.677071 
	C244.682449,97.642448 244.540390,97.383896 244.148834,97.050339 
	C244.209335,97.106636 244.468384,97.265907 244.750488,97.677071 
z"/>
<path fill="#F8F8F9" opacity="1.000000" stroke="none" 
	d="
M347.987946,106.847847 
	C347.782623,106.890793 347.674774,106.738152 347.742920,106.387993 
	C347.817474,106.261986 347.983948,106.723785 347.987946,106.847847 
z"/>
<path fill="#F5F5F5" opacity="1.000000" stroke="none" 
	d="
M355.110504,64.034424 
	C355.363586,63.976891 355.551910,64.233818 355.706116,64.792709 
	C355.455170,64.862633 355.246399,64.614044 355.110504,64.034424 
z"/>
<path fill="#FBFBFC" opacity="1.000000" stroke="none" 
	d="
M62.930870,71.880402 
	C69.381874,77.880959 69.915359,88.324677 64.119705,95.153793 
	C59.152241,101.007050 49.519283,102.643318 44.037991,97.592255 
	C41.140507,94.922188 39.954498,90.394882 37.997009,85.937569 
	C39.685909,72.887993 48.091019,67.372452 60.969429,70.095047 
	C60.969429,70.095047 60.983685,70.020058 61.028336,70.317726 
	C61.692280,71.037064 62.311577,71.458733 62.930870,71.880402 
z"/>
<path fill="#0C0E13" opacity="1.000000" stroke="none" 
	d="
M60.937248,69.725204 
	C48.091019,67.372452 39.685909,72.887993 37.925140,85.554489 
	C35.894058,79.822632 38.355797,72.967812 43.905037,69.085121 
	C49.444382,65.209358 55.673897,65.308380 60.937248,69.725204 
z"/>
<path fill="#0C0E13" opacity="1.000000" stroke="none" 
	d="
M62.904396,71.553879 
	C62.311577,71.458733 61.692280,71.037064 60.992805,70.331665 
	C61.567726,70.441078 62.222824,70.834213 62.904396,71.553879 
z"/>
<path fill="#FBFBFC" opacity="1.000000" stroke="none" 
	d="
M489.932404,71.288307 
	C495.543610,76.354881 496.148438,82.715675 494.274261,89.475731 
	C492.230896,96.846077 486.764954,100.467247 478.489136,100.409172 
	C470.198853,100.350990 466.468750,97.569267 464.133453,89.636612 
	C463.679932,88.095993 463.378113,86.510712 463.375305,84.375084 
	C466.003967,73.749313 470.644714,69.223114 479.305542,69.128845 
	C482.504791,69.094025 485.712341,69.820114 488.916107,70.199158 
	C488.916107,70.199158 488.935547,70.076210 488.800079,70.420433 
	C489.087219,70.939201 489.509796,71.113754 489.932404,71.288307 
z"/>
<path fill="#0C0D10" opacity="1.000000" stroke="none" 
	d="
M488.854065,69.833939 
	C485.712341,69.820114 482.504791,69.094025 479.305542,69.128845 
	C470.644714,69.223114 466.003967,73.749313 463.406647,83.975159 
	C461.123474,79.504578 463.883728,71.858131 469.068878,69.025826 
	C475.596344,65.460297 482.316772,64.983917 488.854065,69.833939 
z"/>
<path fill="#0C0D10" opacity="1.000000" stroke="none" 
	d="
M489.859619,70.988281 
	C489.509796,71.113754 489.087219,70.939201 488.738068,70.425850 
	C489.136658,70.287445 489.461761,70.487854 489.859619,70.988281 
z"/>
<path fill="#FCFCFC" opacity="1.000000" stroke="none" 
	d="
M135.998337,71.800865 
	C139.983841,75.968468 140.777863,81.022270 140.165070,86.509277 
	C139.309021,94.174538 134.197525,99.456978 126.803635,100.220734 
	C116.858589,101.248009 112.009201,98.327599 109.271713,88.980133 
	C108.942741,75.258224 115.137581,68.461037 126.875122,69.151848 
	C129.613205,69.312996 132.295670,70.419182 135.003723,71.090553 
	C135.003723,71.090553 135.039597,70.989487 135.089111,71.194229 
	C135.345139,71.704300 135.631699,71.838257 135.998337,71.800865 
z"/>
<path fill="#0D0F13" opacity="1.000000" stroke="none" 
	d="
M134.910690,70.742210 
	C132.295670,70.419182 129.613205,69.312996 126.875122,69.151848 
	C115.137581,68.461037 108.942741,75.258224 109.101868,88.668724 
	C105.426819,83.355316 107.375877,78.058418 110.429115,72.913101 
	C113.753586,67.310707 119.373581,66.041069 125.087151,66.512482 
	C128.414749,66.787033 131.579590,69.034233 134.910690,70.742210 
z"/>
<path fill="#0D0F13" opacity="1.000000" stroke="none" 
	d="
M135.779266,71.712524 
	C135.631699,71.838257 135.345139,71.704300 135.041000,71.170563 
	C135.025558,71.281181 135.231186,71.508530 135.779266,71.712524 
z"/>
<path fill="#6B76AC" opacity="1.000000" stroke="none" 
	d="
M321.354553,84.958794 
	C322.021454,84.948135 322.961334,85.106697 323.949951,85.567505 
	C323.208313,85.622498 322.417908,85.375259 321.354553,84.958794 
z"/>
<path fill="#6B76AC" opacity="1.000000" stroke="none" 
	d="
M317.120972,84.762077 
	C317.271179,84.148941 317.799042,83.550400 318.662903,83.011871 
	C319.000214,83.469398 319.001495,83.866920 319.004608,84.560699 
	C318.503845,84.830193 318.001221,84.803429 317.120972,84.762077 
z"/>
<path fill="#E9EAEA" opacity="1.000000" stroke="none" 
	d="
M320.447205,82.823715 
	C319.987793,82.387962 319.991821,82.035301 319.988831,81.418015 
	C323.788605,80.229187 327.595398,79.304993 332.097168,78.190636 
	C333.828644,76.927948 334.762970,75.726585 335.921570,74.808098 
	C338.882751,72.460571 341.943909,70.239082 344.965088,67.967186 
	C342.426788,73.861374 345.198242,77.923378 349.513733,81.830856 
	C349.255676,82.377190 349.134430,82.544388 349.056427,82.742981 
	C339.674500,82.797585 330.292572,82.852196 320.447205,82.823715 
z"/>
<path fill="#0C0E11" opacity="1.000000" stroke="none" 
	d="
M345.092651,67.637253 
	C341.943909,70.239082 338.882751,72.460571 335.921570,74.808098 
	C334.762970,75.726585 333.828644,76.927948 332.425171,77.975510 
	C333.776886,70.797325 337.978851,66.015717 345.592224,64.104607 
	C345.705566,65.140549 345.462860,66.223930 345.092651,67.637253 
z"/>
<path fill="#FAFAFA" opacity="1.000000" stroke="none" 
	d="
M357.118958,89.810028 
	C355.294220,87.903908 353.469452,85.997803 351.305176,84.060577 
	C350.965668,84.029465 350.982635,83.533951 350.999634,83.286652 
	C362.485077,83.080017 373.953461,83.120682 385.674500,83.498451 
	C384.823883,84.125931 383.720612,84.416313 381.909271,84.825104 
	C376.860809,85.956856 372.520386,86.970192 367.756104,87.972748 
	C363.927765,88.577995 360.523376,89.194016 357.118958,89.810028 
z"/>
<path fill="#EFF0F5" opacity="1.000000" stroke="none" 
	d="
M349.260376,82.755936 
	C349.134430,82.544388 349.255676,82.377190 349.552185,82.158463 
	C349.846710,82.381485 349.773438,82.612595 349.260376,82.755936 
z"/>
<path fill="#2A488D" opacity="1.000000" stroke="none" 
	d="
M368.179993,87.983528 
	C372.520386,86.970192 376.860809,85.956856 381.605042,84.981949 
	C381.487061,99.752823 370.808594,109.137756 354.353729,108.892395 
	C354.163086,106.779556 354.414093,104.711647 355.159851,102.320862 
	C356.477386,101.314163 357.300201,100.630333 358.489868,99.988029 
	C363.841187,99.090416 366.358521,95.858307 367.436035,90.826378 
	C367.846649,89.722176 368.013336,88.852852 368.179993,87.983528 
z"/>
<path fill="#15161A" opacity="1.000000" stroke="none" 
	d="
M358.123016,99.946503 
	C357.300201,100.630333 356.477386,101.314163 355.321716,102.032471 
	C355.718353,98.264145 356.447845,94.461342 357.148132,90.234283 
	C360.523376,89.194016 363.927765,88.577995 367.756104,87.972748 
	C368.013336,88.852852 367.846649,89.722176 367.032593,90.873886 
	C360.432831,91.080185 358.870483,95.130386 358.123016,99.946503 
z"/>
<path fill="#EBECF0" opacity="1.000000" stroke="none" 
	d="
M358.489868,99.988029 
	C358.870483,95.130386 360.432831,91.080185 366.788635,91.108772 
	C366.358521,95.858307 363.841187,99.090416 358.489868,99.988029 
z"/>
</svg>